# xmcd
#
# Track frame offsets:
#	150
#	13667
#	35603
#	52977
#	59598
#
# Disc length: 1032 seconds
#
# Revision: 0
# Processed by: cddbd v1.5.2PL0 Copyright (c) Steve Scherf et al.
# Submitted via: dBpowerAMP V4.0
#
DISCID=3d040605
DTITLE=She Said! - CD Promo
DYEAR=1900
DGENRE=Country
TTITLE0=Dark Angel
TTITLE1=Black Leather
TTITLE2=Honesty
TTITLE3=She Said
TTITLE4=200 Years
EXTD=
EXTT0=
EXTT1=
EXTT2=
EXTT3=
EXTT4=
PLAYORDER=
